<svg width="85" height="41" viewBox="0 0 85 41" fill="none" xmlns="http://www.w3.org/2000/svg">
<path d="M13.1462 12.4028H13.1433C10.7453 12.4028 8.80125 14.1304 8.80125 16.2615V16.264C8.80125 18.3951 10.7453 20.1227 13.1433 20.1227H13.1462C15.5442 20.1227 17.4882 18.3951 17.4882 16.264V16.2615C17.4882 14.1304 15.5442 12.4028 13.1462 12.4028Z" fill="#2196F3"/>
<path d="M45.195 11.1693C45.1882 8.20934 43.8623 5.37227 41.5074 3.279C39.1525 1.18573 35.9604 0.0067211 32.6297 0V0C29.2981 0.00537723 26.1045 1.18379 23.7484 3.27721C21.3923 5.37063 20.0655 8.20846 20.0587 11.1693V27.4922C20.0587 27.4922 45.1922 25.0045 45.195 11.1719V11.1693Z" fill="#2196F3"/>
<path d="M0 32.8498C0.00604098 34.9094 0.929149 36.8831 2.56761 38.3397C4.20607 39.7963 6.42668 40.6173 8.74418 40.6233C11.0612 40.6173 13.2814 39.7966 14.9197 38.3406C16.5581 36.8845 17.4816 34.9115 17.4884 32.8523V21.4946C17.4884 21.4946 0 23.2269 0 32.8498ZM8.74418 34.8847C8.2913 34.8847 7.84859 34.7654 7.47203 34.5418C7.09548 34.3182 6.80199 34.0004 6.62868 33.6285C6.45537 33.2567 6.41002 32.8475 6.49838 32.4528C6.58673 32.058 6.80481 31.6954 7.12505 31.4108C7.44528 31.1262 7.85328 30.9324 8.29746 30.8539C8.74164 30.7754 9.20204 30.8157 9.62045 30.9697C10.0389 31.1237 10.3965 31.3845 10.6481 31.7192C10.8997 32.0538 11.034 32.4473 11.034 32.8498C11.0351 33.1176 10.9767 33.3831 10.8622 33.6309C10.7476 33.8786 10.5791 34.1039 10.3664 34.2936C10.1536 34.4834 9.90081 34.634 9.62244 34.7367C9.34406 34.8395 9.04561 34.8924 8.74418 34.8924V34.8847Z" fill="#2196F3"/>
<path d="M26.4177 33.7637H24.7302V35.5068H23.8513V31.2412H26.6286V31.9531H24.7302V33.0547H26.4177V33.7637ZM30.6423 33.4707C30.6423 33.8906 30.5681 34.2588 30.4196 34.5752C30.2712 34.8916 30.0583 35.1357 29.781 35.3076C29.5056 35.4795 29.1892 35.5654 28.8317 35.5654C28.4782 35.5654 28.1628 35.4805 27.8855 35.3105C27.6081 35.1406 27.3933 34.8984 27.2409 34.584C27.0886 34.2676 27.0114 33.9043 27.0095 33.4941V33.2832C27.0095 32.8633 27.0847 32.4941 27.2351 32.1758C27.3874 31.8555 27.6013 31.6104 27.8767 31.4404C28.154 31.2686 28.4704 31.1826 28.8259 31.1826C29.1814 31.1826 29.4968 31.2686 29.7722 31.4404C30.0495 31.6104 30.2634 31.8555 30.4138 32.1758C30.5661 32.4941 30.6423 32.8623 30.6423 33.2803V33.4707ZM29.7517 33.2773C29.7517 32.8301 29.6716 32.4902 29.5114 32.2578C29.3513 32.0254 29.1228 31.9092 28.8259 31.9092C28.531 31.9092 28.3034 32.0244 28.1433 32.2549C27.9831 32.4834 27.9021 32.8193 27.9001 33.2627V33.4707C27.9001 33.9062 27.9802 34.2441 28.1403 34.4844C28.3005 34.7246 28.531 34.8447 28.8317 34.8447C29.1267 34.8447 29.3532 34.7295 29.5114 34.499C29.6696 34.2666 29.7497 33.9287 29.7517 33.4854V33.2773ZM33.4929 34.3877C33.4929 34.2217 33.4343 34.0947 33.3171 34.0068C33.1999 33.917 32.989 33.8232 32.6843 33.7256C32.3796 33.626 32.1384 33.5283 31.9606 33.4326C31.4763 33.1709 31.2341 32.8184 31.2341 32.375C31.2341 32.1445 31.2985 31.9395 31.4274 31.7598C31.5583 31.5781 31.7448 31.4365 31.987 31.335C32.2312 31.2334 32.5046 31.1826 32.8073 31.1826C33.112 31.1826 33.3835 31.2383 33.6218 31.3496C33.8601 31.459 34.0446 31.6143 34.1755 31.8154C34.3083 32.0166 34.3747 32.2451 34.3747 32.501H33.4958C33.4958 32.3057 33.4343 32.1543 33.3112 32.0469C33.1882 31.9375 33.0153 31.8828 32.7927 31.8828C32.5778 31.8828 32.4108 31.9287 32.2917 32.0205C32.1726 32.1104 32.113 32.2295 32.113 32.3779C32.113 32.5166 32.1823 32.6328 32.321 32.7266C32.4616 32.8203 32.6677 32.9082 32.9392 32.9902C33.4392 33.1406 33.8034 33.3271 34.0319 33.5498C34.2605 33.7725 34.3747 34.0498 34.3747 34.3818C34.3747 34.751 34.2351 35.041 33.9558 35.252C33.6765 35.4609 33.3005 35.5654 32.8278 35.5654C32.4997 35.5654 32.2009 35.5059 31.9314 35.3867C31.6618 35.2656 31.4558 35.1006 31.3132 34.8916C31.1726 34.6826 31.1022 34.4404 31.1022 34.165H31.9841C31.9841 34.6357 32.2653 34.8711 32.8278 34.8711C33.0368 34.8711 33.1999 34.8291 33.3171 34.7451C33.4343 34.6592 33.4929 34.54 33.4929 34.3877ZM38.1833 31.9531H36.8767V35.5068H35.9978V31.9531H34.7087V31.2412H38.1833V31.9531ZM41.2536 33.6582H39.5661V34.8008H41.5466V35.5068H38.6872V31.2412H41.5407V31.9531H39.5661V32.9697H41.2536V33.6582ZM43.6413 33.9453H42.9411V35.5068H42.0622V31.2412H43.6472C44.1511 31.2412 44.5397 31.3535 44.8132 31.5781C45.0866 31.8027 45.2233 32.1201 45.2233 32.5303C45.2233 32.8213 45.1599 33.0645 45.0329 33.2598C44.9079 33.4531 44.7175 33.6074 44.4616 33.7227L45.3845 35.4658V35.5068H44.4411L43.6413 33.9453ZM42.9411 33.2334H43.6501C43.8708 33.2334 44.0417 33.1777 44.1628 33.0664C44.2839 32.9531 44.3444 32.7979 44.3444 32.6006C44.3444 32.3994 44.2868 32.2412 44.1716 32.126C44.0583 32.0107 43.8835 31.9531 43.6472 31.9531H42.9411V33.2334ZM48.2673 34.0039V35.5068H47.3884V31.2412H49.0524C49.3728 31.2412 49.654 31.2998 49.8962 31.417C50.1403 31.5342 50.3278 31.7012 50.4587 31.918C50.5896 32.1328 50.655 32.3779 50.655 32.6533C50.655 33.0713 50.5114 33.4014 50.2243 33.6436C49.9392 33.8838 49.5437 34.0039 49.0378 34.0039H48.2673ZM48.2673 33.292H49.0524C49.2849 33.292 49.4616 33.2373 49.5827 33.1279C49.7058 33.0186 49.7673 32.8623 49.7673 32.6592C49.7673 32.4502 49.7058 32.2812 49.5827 32.1523C49.4597 32.0234 49.2897 31.957 49.073 31.9531H48.2673V33.292ZM53.8278 33.6582H52.1403V34.8008H54.1208V35.5068H51.2614V31.2412H54.1149V31.9531H52.1403V32.9697H53.8278V33.6582ZM57.906 31.9531H56.5993V35.5068H55.7204V31.9531H54.4314V31.2412H57.906V31.9531ZM60.9763 33.6582H59.2888V34.8008H61.2692V35.5068H58.4099V31.2412H61.2634V31.9531H59.2888V32.9697H60.9763V33.6582ZM63.364 33.9453H62.6638V35.5068H61.7849V31.2412H63.3698C63.8737 31.2412 64.2624 31.3535 64.5358 31.5781C64.8093 31.8027 64.946 32.1201 64.946 32.5303C64.946 32.8213 64.8825 33.0645 64.7556 33.2598C64.6306 33.4531 64.4401 33.6074 64.1843 33.7227L65.1071 35.4658V35.5068H64.1638L63.364 33.9453ZM62.6638 33.2334H63.3728C63.5935 33.2334 63.7644 33.1777 63.8855 33.0664C64.0065 32.9531 64.0671 32.7979 64.0671 32.6006C64.0671 32.3994 64.0095 32.2412 63.8942 32.126C63.781 32.0107 63.6062 31.9531 63.3698 31.9531H62.6638V33.2334ZM67.8288 34.3877C67.8288 34.2217 67.7702 34.0947 67.653 34.0068C67.5358 33.917 67.3249 33.8232 67.0202 33.7256C66.7155 33.626 66.4743 33.5283 66.2966 33.4326C65.8122 33.1709 65.57 32.8184 65.57 32.375C65.57 32.1445 65.6345 31.9395 65.7634 31.7598C65.8942 31.5781 66.0808 31.4365 66.323 31.335C66.5671 31.2334 66.8405 31.1826 67.1433 31.1826C67.448 31.1826 67.7194 31.2383 67.9577 31.3496C68.196 31.459 68.3806 31.6143 68.5114 31.8154C68.6442 32.0166 68.7106 32.2451 68.7106 32.501H67.8317C67.8317 32.3057 67.7702 32.1543 67.6472 32.0469C67.5241 31.9375 67.3513 31.8828 67.1286 31.8828C66.9138 31.8828 66.7468 31.9287 66.6276 32.0205C66.5085 32.1104 66.4489 32.2295 66.4489 32.3779C66.4489 32.5166 66.5183 32.6328 66.6569 32.7266C66.7976 32.8203 67.0036 32.9082 67.2751 32.9902C67.7751 33.1406 68.1394 33.3271 68.3679 33.5498C68.5964 33.7725 68.7106 34.0498 68.7106 34.3818C68.7106 34.751 68.571 35.041 68.2917 35.252C68.0124 35.4609 67.6364 35.5654 67.1638 35.5654C66.8356 35.5654 66.5368 35.5059 66.2673 35.3867C65.9978 35.2656 65.7917 35.1006 65.6491 34.8916C65.5085 34.6826 65.4382 34.4404 65.4382 34.165H66.32C66.32 34.6357 66.6013 34.8711 67.1638 34.8711C67.3728 34.8711 67.5358 34.8291 67.653 34.7451C67.7702 34.6592 67.8288 34.54 67.8288 34.3877Z" fill="#2196F3"/>
</svg>
