<svg width="41" height="47" viewBox="0 0 41 47" fill="none" xmlns="http://www.w3.org/2000/svg">
<path d="M16.9668 43.0508C17.2254 43.0509 17.4373 43.1274 17.6016 43.2803C17.7672 43.4316 17.8506 43.6194 17.8506 43.8438C17.8506 43.9918 17.8131 44.1286 17.7383 44.2539C17.6634 44.3776 17.54 44.5013 17.3691 44.625L17.1279 44.8008L17.8135 45.6113C17.9127 45.4161 17.9628 45.199 17.9629 44.96H18.4775C18.4775 45.3976 18.3749 45.7563 18.1699 46.0361L18.6924 46.6543H18.0039L17.8037 46.417C17.5498 46.6074 17.2471 46.7031 16.8955 46.7031C16.5441 46.7031 16.2623 46.6102 16.0508 46.4248C15.8408 46.2376 15.7363 45.9938 15.7363 45.6943C15.7363 45.5301 15.7807 45.3798 15.8701 45.2432C15.9596 45.1048 16.1367 44.9408 16.4004 44.752C16.262 44.5778 16.1647 44.4297 16.1094 44.3076C16.0557 44.1857 16.0294 44.0679 16.0293 43.9541C16.0293 43.6758 16.1139 43.4561 16.2832 43.2949C16.4525 43.1322 16.6803 43.0508 16.9668 43.0508ZM21.6787 43.0508C22.0707 43.0509 22.3868 43.157 22.626 43.3701C22.8651 43.5833 23.0039 43.8846 23.043 44.2734H22.4277C22.3984 44.0179 22.3236 43.834 22.2031 43.7217C22.0844 43.6078 21.9096 43.5509 21.6787 43.5508C21.4102 43.5508 21.2035 43.6497 21.0586 43.8467C20.9154 44.042 20.8421 44.3288 20.8389 44.708V45.0234C20.8389 45.4073 20.9073 45.7006 21.0439 45.9023C21.1823 46.1038 21.3844 46.2051 21.6494 46.2051C21.8917 46.205 22.0743 46.15 22.1963 46.041C22.3181 45.932 22.3952 45.7505 22.4277 45.4971H23.043C23.0071 45.8761 22.8671 46.1726 22.623 46.3857C22.379 46.5971 22.0543 46.703 21.6494 46.7031C21.3663 46.7031 21.1158 46.6363 20.8994 46.5029C20.6846 46.3678 20.5186 46.1761 20.4014 45.9287C20.2842 45.6814 20.2237 45.3943 20.2188 45.0674V44.7354C20.2188 44.4001 20.2777 44.1042 20.3965 43.8486C20.5153 43.5931 20.6859 43.3962 20.9072 43.2578C21.1301 43.1196 21.3875 43.0508 21.6787 43.0508ZM24.96 43.0508C25.2495 43.0509 25.5057 43.1208 25.7285 43.2607C25.953 43.3991 26.127 43.5994 26.249 43.8613C26.3709 44.1216 26.4329 44.4251 26.4346 44.7715V44.9697C26.4345 45.3178 26.3743 45.6241 26.2539 45.8877C26.1335 46.1496 25.9608 46.3516 25.7363 46.4932C25.5135 46.6331 25.256 46.703 24.9648 46.7031C24.677 46.7031 24.4195 46.6329 24.1934 46.4932C23.9688 46.3516 23.7946 46.15 23.6709 45.8896C23.5489 45.6294 23.487 45.3292 23.4854 44.9893V44.7891C23.4854 44.4426 23.546 44.1363 23.668 43.8711C23.7917 43.6058 23.9655 43.4027 24.1885 43.2627C24.413 43.1212 24.6704 43.0508 24.96 43.0508ZM9.79102 44.7842L10.6094 43.0996H11.293L10.1016 45.3457V46.6543H9.48145V45.3457L8.28711 43.0996H8.97363L9.79102 44.7842ZM14.2373 46.6543H13.5928L13.3018 45.8262H11.9248L11.6367 46.6543H10.9951L12.3379 43.0996H12.8916L14.2373 46.6543ZM16.6221 45.167C16.4268 45.3151 16.3291 45.4844 16.3291 45.6748C16.3291 45.8392 16.3825 45.9727 16.4883 46.0752C16.594 46.1776 16.7358 46.2295 16.9131 46.2295C17.1131 46.2294 17.3006 46.1627 17.4746 46.0293L16.6982 45.1133L16.6221 45.167ZM24.96 43.5635C24.693 43.5635 24.4834 43.668 24.332 43.8779C24.1823 44.0863 24.1058 44.3822 24.1025 44.7646V44.9697C24.1026 45.3601 24.1788 45.6619 24.3301 45.875C24.4831 46.0881 24.6948 46.1953 24.9648 46.1953C25.238 46.1952 25.4483 46.091 25.5947 45.8828C25.7428 45.6746 25.8163 45.3699 25.8164 44.9697V44.7842C25.8164 44.3903 25.7415 44.0879 25.5918 43.8779C25.4438 43.6681 25.2332 43.5636 24.96 43.5635ZM12.0986 45.3281H13.1289L12.6133 43.8535L12.0986 45.3281ZM16.9639 43.5264C16.8484 43.5264 16.7568 43.5656 16.6885 43.6436C16.6201 43.7217 16.5859 43.8206 16.5859 43.9395C16.5861 44.0761 16.6695 44.2476 16.8369 44.4541L17.1084 44.2686L17.1836 44.208C17.2845 44.1185 17.335 44.0033 17.335 43.8633C17.335 43.7707 17.3001 43.692 17.2305 43.627C17.1605 43.5602 17.0713 43.5264 16.9639 43.5264ZM41 33.1338L34 26.5068V38.8135H0V6.62695L13.0078 6.63379L6 0H41V33.1338ZM5.37988 34.1055H27.5234V32.6396H6.94531V12.458H5.37988V34.1055ZM33.6924 25.7275V6.91797H13.8223L33.6924 25.7275Z" fill="#AFB1B8"/>
</svg>
