<svg width="40" height="52" viewBox="0 0 40 52" fill="none" xmlns="http://www.w3.org/2000/svg">
<path d="M39.2413 29.9404C36.8069 31.3587 34.185 32.4246 31.4542 33.1064C29.0569 33.7229 26.5928 34.0398 24.1183 34.0498C22.2432 34.0649 20.3735 33.8443 18.5529 33.3936V5.32227C18.9829 5.42144 19.4258 5.51258 19.8761 5.58887C20.6147 5.71345 21.3936 5.80538 22.1525 5.86133C22.7873 5.90964 23.4453 5.93261 24.1105 5.93262C26.7122 5.92311 29.3036 5.5908 31.8243 4.94336C34.4071 4.29393 36.899 3.32196 39.2413 2.0498V29.9404ZM16.3195 0C16.8304 0.0127154 17.329 0.0356921 17.797 0.0712891C19.0299 0.157876 20.2531 0.352448 21.4523 0.65332V3.5166C20.2875 3.24526 19.1029 3.06654 17.9103 2.98242C17.6397 2.95954 17.3663 2.93457 17.1134 2.93457H16.9767C16.7668 2.92187 16.5567 2.91719 16.3468 2.91211H15.8917C15.4946 2.91211 15.0898 2.92204 14.6876 2.94238C14.6574 2.94018 14.627 2.94019 14.5968 2.94238C10.9525 3.14887 7.38142 4.05959 4.0802 5.625L3.64758 5.83301V27.9746L4.66028 27.6309C5.54805 27.3258 6.49398 27.0511 7.47278 26.7969C10.1191 26.1175 12.8364 25.7569 15.5675 25.7217V28.6309C15.206 28.6334 14.8545 28.6433 14.5031 28.6611H14.4191C12.3173 28.7765 10.2317 29.0966 8.19153 29.6172C5.6074 30.2641 3.11433 31.2359 0.771606 32.5088V4.1123C3.20469 2.69317 5.82555 1.6272 8.55579 0.946289C10.9528 0.327403 13.4169 0.00931074 15.8917 0H16.3195ZM35.3351 6.41797C34.4043 6.73069 33.466 7.01059 32.5226 7.25977C29.7753 7.96574 26.9509 8.32781 24.1154 8.33789C23.4554 8.33788 22.8485 8.32035 22.2618 8.28223L21.4542 8.22852V31.0059L22.1476 31.0664C22.7901 31.1224 23.4534 31.1504 24.1212 31.1504C26.3546 31.1409 28.5784 30.8536 30.7413 30.2939C32.5224 29.8472 34.255 29.224 35.9142 28.4346L36.3468 28.2266V6.07715L35.3351 6.41797Z" fill="#AFB1B8"/>
<path d="M2.73713 42.212C2.59166 42.0611 2.41629 41.9427 2.22236 41.8642C2.02844 41.7858 1.82029 41.7492 1.61141 41.7568C1.38879 41.7539 1.16781 41.7954 0.961267 41.8789C0.771901 41.9543 0.599767 42.0677 0.455322 42.212C0.312451 42.3568 0.201292 42.5301 0.128988 42.7206C0.0496792 42.9203 0.0101425 43.1337 0.0126205 43.3487V47.1427C0.00357283 47.4101 0.0545882 47.676 0.161874 47.9209C0.251433 48.1153 0.380725 48.2886 0.541333 48.4294C0.692953 48.5571 0.870978 48.6492 1.06246 48.699C1.24694 48.7508 1.43755 48.7774 1.62911 48.7778C1.84041 48.7799 2.04953 48.7348 2.24131 48.6456C2.43095 48.5626 2.60277 48.4434 2.74725 48.2947C2.88814 48.1473 3.00052 47.9748 3.07865 47.7861C3.15973 47.5948 3.20105 47.3888 3.20007 47.1809V46.7562H2.20842V47.0944C2.21137 47.2099 2.1916 47.3248 2.15024 47.4326C2.11794 47.5134 2.06877 47.5862 2.00604 47.6462C1.94461 47.6959 1.87416 47.733 1.79861 47.7556C1.73164 47.7779 1.6617 47.7899 1.59117 47.7912C1.50263 47.8015 1.41296 47.7881 1.33122 47.7524C1.24948 47.7166 1.17858 47.6599 1.1257 47.5877C1.03222 47.4353 0.986395 47.2581 0.994154 47.0792V43.542C0.988002 43.3458 1.02969 43.1511 1.11558 42.9749C1.16706 42.8948 1.2399 42.8309 1.32578 42.7904C1.41166 42.75 1.50713 42.7346 1.60129 42.746C1.68676 42.743 1.7717 42.7608 1.8488 42.798C1.92591 42.8352 1.99289 42.8907 2.04399 42.9596C2.15496 43.1053 2.21298 43.2848 2.20842 43.4682V43.7963H3.18995V43.4097C3.19195 43.1827 3.15073 42.9575 3.06853 42.746C2.99527 42.5473 2.88251 42.3656 2.73713 42.212Z" fill="#AFB1B8"/>
<path d="M8.62892 42.169C8.31271 41.902 7.91362 41.7545 7.50066 41.752C7.29868 41.7528 7.09838 41.7889 6.9087 41.8588C6.71613 41.9278 6.53841 42.0331 6.38505 42.169C6.22076 42.3167 6.08968 42.4978 6.00053 42.7005C5.90063 42.9322 5.85146 43.1828 5.85634 43.4354V47.0743C5.8495 47.3302 5.89873 47.5846 6.00053 47.8193C6.09028 48.015 6.22152 48.1886 6.38505 48.3279C6.53665 48.4687 6.71468 48.5776 6.9087 48.6483C7.09838 48.7181 7.29868 48.7543 7.50066 48.7551C7.70269 48.7547 7.90307 48.7186 8.09262 48.6483C8.28995 48.5766 8.47195 48.4679 8.62892 48.3279C8.7871 48.186 8.91454 48.0129 9.00332 47.8193C9.10512 47.5846 9.15435 47.3302 9.14751 47.0743V43.4354C9.15239 43.1828 9.10322 42.9322 9.00332 42.7005C8.91505 42.5 8.78775 42.3193 8.62892 42.169ZM8.16598 47.0743C8.17434 47.1713 8.16095 47.2689 8.1268 47.36C8.09265 47.4511 8.03861 47.5333 7.96866 47.6007C7.83768 47.7105 7.67251 47.7707 7.50193 47.7707C7.33135 47.7707 7.16617 47.7105 7.03519 47.6007C6.96524 47.5333 6.9112 47.4511 6.87705 47.36C6.8429 47.2689 6.82952 47.1713 6.83787 47.0743V43.4354C6.82952 43.3384 6.8429 43.2407 6.87705 43.1496C6.9112 43.0585 6.96524 42.9763 7.03519 42.909C7.16617 42.7991 7.33135 42.739 7.50193 42.739C7.67251 42.739 7.83768 42.7991 7.96866 42.909C8.03861 42.9763 8.09265 43.0585 8.1268 43.1496C8.16095 43.2407 8.17434 43.3384 8.16598 43.4354V47.0743Z" fill="#AFB1B8"/>
<path d="M16.3673 48.6993V41.8105H15.4136L14.1614 45.4571H14.1437L12.8813 41.8105H11.9377V48.6993H12.9218V44.5086H12.9395L13.9033 47.4711H14.3941L15.3655 44.5086H15.3832V48.6993H16.3673Z" fill="#AFB1B8"/>
<path d="M21.9581 42.2935C21.8065 42.1236 21.6153 41.9942 21.4015 41.9172C21.1712 41.8423 20.9302 41.8062 20.6881 41.8104H19.226V48.6991H20.2075V46.0087H20.7134C21.0197 46.0227 21.3244 45.9579 21.5988 45.8206C21.822 45.6967 22.0081 45.5149 22.1377 45.2942C22.2512 45.111 22.3277 44.907 22.3628 44.6941C22.4014 44.4348 22.4192 44.1729 22.4159 43.9108C22.4255 43.58 22.3932 43.2494 22.3198 42.9267C22.2543 42.6884 22.1299 42.4705 21.9581 42.2935ZM21.4521 44.394C21.4479 44.5187 21.4168 44.641 21.361 44.7525C21.3049 44.8585 21.2162 44.9432 21.1081 44.9941C20.9627 45.0591 20.8041 45.0888 20.6451 45.0806H20.1974V42.7386H20.7033C20.8557 42.7311 21.0075 42.7607 21.146 42.825C21.2475 42.8832 21.3281 42.9723 21.3762 43.0793C21.4299 43.2003 21.4591 43.3308 21.4622 43.4633C21.4622 43.6082 21.4622 43.7608 21.4622 43.921C21.4622 44.0812 21.4723 44.2465 21.4622 44.394H21.4521Z" fill="#AFB1B8"/>
<path d="M26.6077 41.8105H25.8032L24.2854 48.6993H25.2669L25.5553 47.2193H26.8935L27.1819 48.6993H28.1635L26.6077 41.8105ZM25.702 46.281L26.1852 43.7838H26.2029L26.6836 46.281H25.702Z" fill="#AFB1B8"/>
<path d="M32.9497 45.9606H32.932L31.4496 41.8105H30.506V48.6993H31.4875V44.5569H31.5078L33.0079 48.6993H33.9312V41.8105H32.9497V45.9606Z" fill="#AFB1B8"/>
<path d="M38.9476 41.8105L38.1583 44.5493H38.1381L37.3488 41.8105H36.3091L37.6574 45.7877V48.6993H38.639V45.7877L39.9873 41.8105H38.9476Z" fill="#AFB1B8"/>
<path d="M0 50.6442H0.473058V51.9716H0.794333V50.6442H1.26486V50.3721H0V50.6442Z" fill="#AFB1B8"/>
<path d="M3.97672 50.3721L3.35693 51.9716H3.69845L3.82999 51.6079H4.46748L4.60409 51.9716H4.95319L4.31823 50.3721H3.97672ZM3.92612 51.3384L4.14368 50.7459L4.36123 51.3384H3.92612Z" fill="#AFB1B8"/>
<path d="M7.90793 51.3821H8.27727V51.5881C8.16941 51.6746 8.03576 51.722 7.89781 51.7229C7.8333 51.7265 7.76886 51.7145 7.70988 51.688C7.65091 51.6614 7.59911 51.6211 7.55883 51.5703C7.47402 51.4485 7.43217 51.3017 7.43993 51.1533C7.43993 50.7973 7.59424 50.6193 7.90034 50.6193C7.98091 50.6112 8.06168 50.6325 8.12804 50.6791C8.19439 50.7257 8.24194 50.7947 8.26209 50.8735L8.57831 50.8125C8.51001 50.4997 8.28486 50.3421 7.90034 50.3421C7.69468 50.3366 7.4947 50.4103 7.34127 50.5481C7.26069 50.6276 7.19834 50.7239 7.15858 50.8302C7.11882 50.9365 7.10261 51.0502 7.11107 51.1634C7.10175 51.3823 7.17493 51.5966 7.31598 51.7636C7.39434 51.8444 7.4892 51.9071 7.59401 51.9475C7.69883 51.9879 7.8111 52.0049 7.92311 51.9975C8.17338 52.0045 8.41652 51.9133 8.60108 51.7432V51.1126H7.90793V51.3821Z" fill="#AFB1B8"/>
<path d="M11.9226 50.3721H11.5988V51.9716H12.7194V51.6995H11.9226V50.3721Z" fill="#AFB1B8"/>
<path d="M15.3175 50.3721H14.9937V51.9716H15.3175V50.3721Z" fill="#AFB1B8"/>
<path d="M18.6365 51.4401L17.9813 50.3721H17.6676V51.9716H17.9686V50.9264L18.6112 51.9716H18.9325V50.3721H18.6365V51.4401Z" fill="#AFB1B8"/>
<path d="M21.6368 51.2672H22.4337V50.9951H21.6368V50.6442H22.4944V50.3721H21.313V51.9716H22.5273V51.6995H21.6368V51.2672Z" fill="#AFB1B8"/>
<path d="M28.9122 51.0027H28.2823V50.3721H27.9611V51.9716H28.2823V51.2723H28.9122V51.9716H29.2335V50.3721H28.9122V51.0027Z" fill="#AFB1B8"/>
<path d="M31.9302 51.2672H32.7296V50.9951H31.9302V50.6442H32.7903V50.3721H31.6089V51.9716H32.8206V51.6995H31.9302V51.2672Z" fill="#AFB1B8"/>
<path d="M36.0233 51.2674C36.3015 51.2241 36.4432 51.0766 36.4432 50.8224C36.4513 50.7543 36.441 50.6854 36.4134 50.6227C36.3858 50.5601 36.3419 50.5061 36.2863 50.4663C36.1415 50.3936 35.9799 50.3611 35.8183 50.3723H35.1404V51.9717H35.4617V51.303H35.5249C35.5934 51.2987 35.6619 51.3109 35.7247 51.3386C35.7717 51.3675 35.8108 51.4077 35.8386 51.4555L36.1877 51.9641H36.5722L36.3774 51.6513C36.2913 51.4969 36.1699 51.3653 36.0233 51.2674ZM35.6994 51.0461H35.4617V50.6444H35.7146C35.8248 50.6354 35.9357 50.6484 36.041 50.6825C36.0644 50.7031 36.0828 50.7288 36.095 50.7576C36.1072 50.7865 36.1127 50.8176 36.1113 50.8489C36.1098 50.8802 36.1014 50.9107 36.0866 50.9382C36.0718 50.9658 36.051 50.9896 36.0258 51.008C35.9202 51.0404 35.8096 51.0533 35.6994 51.0461Z" fill="#AFB1B8"/>
<path d="M39.1096 51.2672H39.9064V50.9951H39.1096V50.6442H39.9697V50.3721H38.7858V51.9716H40V51.6995H39.1096V51.2672Z" fill="#AFB1B8"/>
</svg>
