<svg width="94" height="44" viewBox="0 0 94 44" fill="none" xmlns="http://www.w3.org/2000/svg">
<path d="M47.425 20.6415C46.9819 20.0517 46.77 19.3546 46.8203 18.6529V15.7697C46.8203 14.8859 47.0207 14.2142 47.4216 13.7547C47.8225 13.2952 48.511 13.0664 49.4871 13.0684C50.4044 13.0684 51.0555 13.2639 51.4405 13.655C51.8605 14.154 52.0648 14.7641 52.0181 15.3796V16.0572H50.3772V15.3708C50.383 15.1462 50.3671 14.9215 50.3296 14.6991C50.306 14.5471 50.2234 14.4065 50.0952 14.3003C49.9267 14.1857 49.7145 14.1302 49.5007 14.1448C49.2759 14.1303 49.0529 14.1889 48.8756 14.3091C48.7327 14.4267 48.6374 14.581 48.6038 14.749C48.5568 14.9843 48.5352 15.223 48.5393 15.4617V18.9609C48.5134 19.2984 48.5858 19.6362 48.7499 19.9434C48.8315 20.0474 48.9449 20.1298 49.0774 20.1816C49.2099 20.2333 49.3564 20.2524 49.5007 20.2368C49.7109 20.2517 49.9195 20.1948 50.0816 20.0784C50.2153 19.9638 50.3013 19.8143 50.3262 19.6531C50.3646 19.4209 50.3816 19.1865 50.3772 18.9521V18.2423H52.0181V18.8905C52.0641 19.532 51.8648 20.1689 51.4507 20.7031C51.0736 21.1313 50.4315 21.3454 49.4871 21.3454C48.5427 21.3454 47.8293 21.1167 47.425 20.6415Z" fill="#AFB1B8"/>
<path d="M54.2569 20.6708C53.8424 20.2221 53.6352 19.568 53.6352 18.7028V15.67C53.6352 14.8135 53.8424 14.1653 54.2569 13.7254C54.6713 13.2854 55.3644 13.0664 56.3359 13.0684C57.3007 13.0684 57.9904 13.2874 58.4048 13.7254C58.8193 14.1653 59.0299 14.8135 59.0299 15.67V18.7028C59.0299 19.5592 58.8193 20.2162 58.398 20.6679C57.9768 21.1196 57.2906 21.3454 56.3359 21.3454C55.3813 21.3454 54.6747 21.1167 54.2569 20.6708ZM57.1003 19.9434C57.2487 19.6623 57.3163 19.3544 57.2974 19.0459V15.3327C57.3164 15.0302 57.2499 14.7282 57.1037 14.4528C57.0205 14.3466 56.9043 14.2629 56.7686 14.211C56.6328 14.1591 56.4829 14.1413 56.3359 14.1595C56.1885 14.1417 56.0383 14.1598 55.9021 14.2116C55.7659 14.2634 55.6491 14.3469 55.5648 14.4528C55.4154 14.7274 55.3477 15.0298 55.3678 15.3327V19.0635C55.3471 19.3721 55.4148 19.6804 55.5648 19.961C55.6604 20.0557 55.7785 20.1315 55.9109 20.1834C56.0433 20.2354 56.1871 20.2623 56.3326 20.2623C56.478 20.2623 56.6218 20.2354 56.7542 20.1834C56.8866 20.1315 57.0047 20.0557 57.1003 19.961V19.9434Z" fill="#AFB1B8"/>
<path d="M61.0036 13.1567H62.7701L64.0984 18.7524L65.4573 13.1567H67.1763L67.3496 21.2335H66.079L65.9431 15.6202L64.6318 21.2335H63.6126L62.2537 15.5997L62.128 21.2335H60.8439L61.0036 13.1567Z" fill="#AFB1B8"/>
<path d="M69.3302 13.1567H72.0819C73.6673 13.1567 74.46 13.9212 74.46 15.4501C74.46 16.9145 73.6254 17.6458 71.9562 17.6438H71.0186V21.2335H69.32L69.3302 13.1567ZM71.6811 16.6086C71.8489 16.6269 72.0194 16.6136 72.1806 16.5696C72.3419 16.5255 72.4902 16.4518 72.6153 16.3534C72.8101 16.0806 72.896 15.7603 72.8599 15.4413C72.8688 15.1949 72.8414 14.9486 72.7784 14.7081C72.7541 14.6278 72.7116 14.5525 72.6533 14.4865C72.595 14.4206 72.522 14.3653 72.4386 14.324C72.2028 14.2263 71.9422 14.1819 71.6811 14.1949H71.022V16.6086H71.6811Z" fill="#AFB1B8"/>
<path d="M76.9094 13.1567H78.7337L80.6055 21.2335H79.0225L78.6522 19.3712H77.0249L76.6444 21.2335H75.0376L76.9094 13.1567ZM78.4687 18.4356L77.8334 15.0454L77.1982 18.4356H78.4687Z" fill="#AFB1B8"/>
<path d="M82.1173 13.1567H83.3063L85.5825 17.764V13.1567H86.9923V21.2335H85.8611L83.5713 16.4238V21.2335H82.1139L82.1173 13.1567Z" fill="#AFB1B8"/>
<path d="M90.2944 18.1543L88.4022 13.1685H89.9955L91.1505 16.3711L92.2342 13.1685H93.7936L91.9251 18.1543V21.2338H90.2944V18.1543Z" fill="#AFB1B8"/>
<path d="M50.0477 24.7651V25.1875H48.6617V28.4694H48.0807V25.1875H46.6879V24.7651H50.0477Z" fill="#AFB1B8"/>
<path d="M54.3927 28.4697H53.9442C53.8987 28.4722 53.8537 28.4596 53.8185 28.4345C53.7846 28.413 53.7586 28.3835 53.7438 28.3495L53.3429 27.4696H51.4201L51.0192 28.3495C51.0078 28.3863 50.9869 28.4204 50.958 28.4492C50.9225 28.4737 50.8778 28.4863 50.8323 28.4844H50.3839L52.0825 24.7803H52.6737L54.3927 28.4697ZM51.5797 27.0942H53.1832L52.5038 25.5868C52.4537 25.4728 52.4117 25.3562 52.3781 25.2378C52.3543 25.3082 52.3339 25.3756 52.3135 25.4343L52.2524 25.5897L51.5797 27.0942Z" fill="#AFB1B8"/>
<path d="M57.3211 28.1058C57.4275 28.1106 57.5341 28.1106 57.6404 28.1058C57.7323 28.0976 57.8232 28.0829 57.9122 28.0618C57.9954 28.0441 58.0772 28.0216 58.1568 27.9943C58.2316 27.9679 58.3063 27.9356 58.3844 27.9034V27.0703H57.705C57.6882 27.0712 57.6714 27.069 57.6556 27.0639C57.6398 27.0589 57.6254 27.0511 57.6133 27.041C57.6021 27.0327 57.5933 27.0223 57.5874 27.0106C57.5815 26.9989 57.5787 26.9863 57.5793 26.9735V26.689H58.8974V28.1087C58.7898 28.1751 58.6762 28.234 58.5577 28.2847C58.4366 28.3363 58.3104 28.3785 58.1806 28.4108C58.0417 28.4461 57.8996 28.4716 57.7559 28.4871C57.5912 28.5029 57.4257 28.5107 57.26 28.5105C56.967 28.5127 56.6763 28.4658 56.4038 28.3727C56.1495 28.2844 55.9184 28.1527 55.7244 27.9855C55.5353 27.8166 55.3864 27.6173 55.2862 27.3989C55.1791 27.1533 55.1261 26.8927 55.1299 26.6304C55.1263 26.3664 55.1781 26.104 55.2828 25.856C55.3805 25.6365 55.5297 25.4367 55.721 25.2694C55.9149 25.1027 56.1461 24.972 56.4005 24.8851C56.6914 24.7906 57.0001 24.7439 57.3109 24.7472C57.4691 24.7471 57.627 24.7579 57.7831 24.7795C57.9212 24.7989 58.0567 24.8304 58.1874 24.8734C58.3062 24.9119 58.4201 24.9611 58.5271 25.02C58.6312 25.0779 58.7301 25.1426 58.8227 25.2136L58.6596 25.4424C58.6468 25.4633 58.6278 25.4809 58.6045 25.4932C58.5812 25.5056 58.5545 25.5124 58.5271 25.5128C58.4895 25.5118 58.453 25.5016 58.4218 25.4835C58.3708 25.46 58.3165 25.4307 58.2553 25.3955C58.1831 25.3564 58.1069 25.323 58.0277 25.2958C57.9265 25.2607 57.8219 25.2332 57.7152 25.2136C57.5729 25.191 57.4284 25.1802 57.2837 25.1814C57.0596 25.1792 56.8371 25.2141 56.6281 25.284C56.439 25.3495 56.2686 25.4496 56.1287 25.5773C55.9879 25.7105 55.8803 25.8673 55.8127 26.0378C55.661 26.439 55.661 26.8715 55.8127 27.2727C55.8871 27.4469 56.0028 27.6058 56.1525 27.7391C56.2918 27.8662 56.4609 27.9662 56.6485 28.0324C56.8645 28.0965 57.0934 28.1214 57.3211 28.1058Z" fill="#AFB1B8"/>
<path d="M62.7362 28.0471H64.5912V28.4694H62.1689V24.7651H62.7498L62.7362 28.0471Z" fill="#AFB1B8"/>
<path d="M66.5208 28.4694H65.9398V24.7651H66.5208V28.4694Z" fill="#AFB1B8"/>
<path d="M68.6814 24.7828C68.7159 24.7998 68.746 24.8227 68.7697 24.8502L71.2531 27.6425C71.2497 27.5986 71.2497 27.5545 71.2531 27.5105C71.2531 27.4695 71.2531 27.4284 71.2531 27.3903V24.7505H71.7592V28.4697H71.4671C71.4238 28.4727 71.3804 28.4656 71.3414 28.4491C71.3061 28.4307 71.275 28.4068 71.2497 28.3787L68.7697 25.5894C68.7697 25.6334 68.7697 25.6744 68.7697 25.7155C68.7697 25.7565 68.7697 25.7947 68.7697 25.8299V28.4697H68.284V24.7652H68.5863C68.6191 24.7652 68.6515 24.7712 68.6814 24.7828Z" fill="#AFB1B8"/>
<path d="M76.0364 24.7651V25.1728H73.9777V26.3959H75.6457V26.7889H73.9777V28.053H76.0364V28.4607H73.3798V24.7651H76.0364Z" fill="#AFB1B8"/>
<path d="M15.1617 1.88878L40.9568 8.21209V30.3701L15.1617 24.0497V1.88878ZM13.5073 0V25.1261L42.6079 32.2618V7.13866L13.5073 0Z" fill="#AFB1B8"/>
<path d="M29.1039 43.9257L0 36.7841V11.6606L29.1039 18.7994V43.9257Z" fill="#AFB1B8"/>
<path d="M13.9897 1.60426L39.4484 7.84828L28.6215 17.1982L3.1594 10.9512L13.9897 1.60426ZM13.5073 0L0 11.661L29.1039 18.7995L42.6078 7.13853L13.5073 0Z" fill="#AFB1B8"/>
<path d="M30.7414 42.512L42.6078 32.2648L30.7414 29.3525V42.512Z" fill="#AFB1B8"/>
</svg>
