<svg width="44" height="42" viewBox="0 0 44 42" fill="none" xmlns="http://www.w3.org/2000/svg">
<path d="M6.72619 40.4016C6.74211 40.402 6.75778 40.4051 6.77229 40.4108C6.7868 40.4165 6.79986 40.4246 6.81071 40.4348L7.02883 40.6433C6.85953 40.812 6.65027 40.947 6.41538 41.0389C6.14031 41.1393 5.84386 41.1877 5.54563 41.1811C5.2654 41.1861 4.98697 41.1409 4.72769 41.0484C4.49381 40.9634 4.28367 40.8358 4.11151 40.6741C3.9358 40.5063 3.80046 40.3098 3.71344 40.096C3.61815 39.8576 3.57111 39.6067 3.57439 39.3544C3.57053 39.1005 3.62139 38.8481 3.72435 38.6105C3.8196 38.3953 3.96326 38.1987 4.14695 38.0324C4.33313 37.8692 4.55584 37.741 4.80131 37.6557C5.06984 37.5652 5.3558 37.5202 5.64378 37.523C5.9113 37.5173 6.17739 37.5584 6.42628 37.6438C6.64222 37.7252 6.84049 37.8382 7.01247 37.9779L6.8298 38.2006C6.81718 38.2163 6.80149 38.2299 6.78345 38.2409C6.7619 38.2537 6.73585 38.2596 6.70983 38.2574C6.68154 38.2557 6.65426 38.2476 6.63077 38.2337L6.53261 38.1745L6.39629 38.0987C6.33744 38.0706 6.2764 38.046 6.21362 38.0253C6.13275 38.0001 6.04981 37.9803 5.96551 37.966C5.85851 37.9489 5.74984 37.941 5.64106 37.9423C5.43368 37.9401 5.22788 37.9739 5.03578 38.0418C4.85663 38.1048 4.69492 38.2001 4.56138 38.3214C4.42542 38.4505 4.32066 38.6019 4.25328 38.7668C4.1765 38.9554 4.13865 39.1543 4.1415 39.3544C4.13822 39.5576 4.17606 39.7597 4.25328 39.9514C4.31982 40.1149 4.42264 40.2654 4.55592 40.3945C4.6808 40.5148 4.83558 40.6088 5.00852 40.6693C5.18649 40.7334 5.37752 40.7657 5.57017 40.7641C5.68145 40.7656 5.79269 40.7592 5.9028 40.7451C6.08259 40.7261 6.25505 40.6718 6.4072 40.5864C6.48351 40.5427 6.55555 40.4935 6.62259 40.4395C6.65061 40.4163 6.68748 40.4028 6.72619 40.4016Z" fill="#AFB1B8"/>
<path d="M13.0243 39.354C13.0277 39.6053 12.9778 39.8551 12.8771 40.0908C12.7882 40.3045 12.6483 40.4995 12.4664 40.6628C12.2845 40.8262 12.0649 40.9542 11.822 41.0384C11.2882 41.2153 10.6981 41.2153 10.1643 41.0384C9.92292 40.9529 9.70471 40.8246 9.52357 40.6617C9.34182 40.4954 9.20083 40.2987 9.10916 40.0836C8.91275 39.6065 8.91275 39.0849 9.10916 38.6077C9.20216 38.3925 9.34298 38.1953 9.52357 38.0273C9.70624 37.8696 9.92434 37.7462 10.1643 37.6648C10.6974 37.4848 11.2888 37.4848 11.822 37.6648C12.0642 37.7503 12.2833 37.8786 12.4654 38.0415C12.6449 38.2062 12.7848 38.4003 12.8771 38.6125C12.9781 38.8497 13.028 39.1011 13.0243 39.354ZM12.4518 39.354C12.4561 39.1529 12.421 38.9526 12.3482 38.7617C12.2871 38.5982 12.1878 38.4473 12.0564 38.3187C11.9286 38.197 11.7712 38.1015 11.5957 38.0392C11.2078 37.9096 10.7784 37.9096 10.3906 38.0392C10.215 38.1015 10.0576 38.197 9.92981 38.3187C9.79667 38.4466 9.6963 38.5976 9.63536 38.7617C9.49664 39.1474 9.49664 39.5606 9.63536 39.9462C9.6969 40.1101 9.7972 40.261 9.92981 40.3893C10.0578 40.5102 10.2152 40.6049 10.3906 40.6664C10.7791 40.7927 11.2071 40.7927 11.5957 40.6664C11.771 40.6049 11.9284 40.5102 12.0564 40.3893C12.1872 40.2603 12.2864 40.1095 12.3482 39.9462C12.4213 39.7554 12.4564 39.5551 12.4518 39.354Z" fill="#AFB1B8"/>
<path d="M17.3213 39.9749L17.3785 40.1075C17.4003 40.0602 17.4194 40.0175 17.4412 39.9749C17.462 39.9303 17.4857 39.8868 17.5121 39.8446L18.9053 37.644C18.9326 37.6061 18.9571 37.5824 18.9844 37.5753C19.0215 37.5655 19.0602 37.5615 19.0989 37.5635H19.5106V41.1427H19.0226V38.511C19.0226 38.4778 19.0226 38.4399 19.0226 38.3997C19.0199 38.3586 19.0199 38.3175 19.0226 38.2765L17.6212 40.5079C17.6034 40.5413 17.5749 40.5695 17.5391 40.5893C17.5034 40.609 17.4618 40.6194 17.4194 40.6192H17.3403C17.2979 40.6197 17.2562 40.6094 17.2204 40.5897C17.1845 40.5699 17.1561 40.5415 17.1386 40.5079L15.6963 38.2623C15.6963 38.3049 15.6963 38.3475 15.6963 38.3902C15.6963 38.4328 15.6963 38.4707 15.6963 38.5039V41.1356H15.2246V37.5635H15.6363C15.675 37.5615 15.7138 37.5655 15.7508 37.5753C15.7846 37.5899 15.8116 37.6142 15.8272 37.644L17.2504 39.847C17.2783 39.8877 17.3021 39.9305 17.3213 39.9749Z" fill="#AFB1B8"/>
<path d="M22.5643 39.797V41.1377H22.019V37.5634H23.235C23.4646 37.5595 23.6934 37.5859 23.9139 37.6415C24.0904 37.685 24.254 37.7609 24.3938 37.8642C24.5149 37.961 24.6082 38.081 24.6664 38.2147C24.7308 38.3606 24.7622 38.5158 24.7591 38.6719C24.7615 38.8287 24.7272 38.9842 24.6582 39.1291C24.5927 39.2662 24.492 39.3885 24.3638 39.4867C24.2239 39.5943 24.0594 39.675 23.8812 39.7236C23.6689 39.7825 23.4469 39.8105 23.2241 39.8065L22.5643 39.797ZM22.5643 39.4133H23.2241C23.3674 39.4149 23.5101 39.3965 23.6467 39.3588C23.7594 39.3259 23.8633 39.2735 23.9521 39.2049C24.034 39.1393 24.0974 39.0583 24.1375 38.968C24.1821 38.8725 24.2044 38.7702 24.2029 38.6672C24.2093 38.5678 24.1906 38.4684 24.1482 38.376C24.1058 38.2835 24.0408 38.2002 23.9575 38.1318C23.7492 37.9905 23.4876 37.9221 23.2241 37.94H22.5643V39.4133Z" fill="#AFB1B8"/>
<path d="M29.8931 41.1426H29.4623C29.4191 41.144 29.3766 41.1323 29.3423 41.1094C29.3114 41.0871 29.2871 41.0587 29.2714 41.0265L28.9006 40.1618H27.0384L26.654 41.0265C26.6399 41.0581 26.6164 41.0859 26.5859 41.107C26.5512 41.1313 26.5076 41.1439 26.4632 41.1426H26.0324L27.6683 37.563H28.2354L29.8931 41.1426ZM27.1939 39.8135H28.7316L28.0827 38.3566C28.0331 38.247 27.9921 38.1346 27.96 38.0202L27.8973 38.2074C27.8782 38.2642 27.8564 38.3163 27.8373 38.359L27.1939 39.8135Z" fill="#AFB1B8"/>
<path d="M32.2488 37.5796C32.2814 37.5952 32.3094 37.6171 32.3306 37.6436L34.7162 40.3419C34.7162 40.2992 34.7162 40.2566 34.7162 40.2163C34.7162 40.176 34.7162 40.1358 34.7162 40.0979V37.5631H35.2043V41.1426H34.9316C34.8929 41.1436 34.8545 41.1363 34.8198 41.1213C34.7861 41.1042 34.7565 41.0817 34.7326 41.0549L32.3496 38.359C32.3523 38.4001 32.3523 38.4412 32.3496 38.4822C32.3496 38.5225 32.3496 38.558 32.3496 38.5912V41.1426H31.8616V37.5631H32.1506C32.1843 37.5622 32.2178 37.5679 32.2488 37.5796Z" fill="#AFB1B8"/>
<path d="M39.2231 39.7186V41.14H38.6778V39.7186L37.17 37.5629H37.6581C37.7001 37.5607 37.7417 37.5716 37.7753 37.5937C37.805 37.6166 37.8299 37.6439 37.8489 37.6742L38.7923 39.0648C38.8304 39.124 38.8632 39.1785 38.8904 39.2306C38.9177 39.2827 38.9395 39.3325 38.9586 39.3822L39.0295 39.2282C39.0559 39.1719 39.0869 39.1173 39.1222 39.0648L40.0519 37.6647C40.0715 37.6368 40.0953 37.6113 40.1228 37.5889C40.1551 37.5644 40.1971 37.5516 40.24 37.5534H40.7335L39.2231 39.7186Z" fill="#AFB1B8"/>
<path d="M17.0514 31.5561C17.2886 31.5821 17.5285 31.6034 17.7712 31.6224C21.45 30.1925 24.5622 27.8523 26.7186 24.8941C28.8751 21.936 29.9802 18.4912 29.8958 14.9903L25.8415 11.4678C26.6659 15.1951 26.2803 19.0481 24.7279 22.5959C23.1755 26.1436 20.5175 29.246 17.0514 31.5561Z" fill="#AFB1B8"/>
<path d="M15.6036 31.3922L15.7127 31.4112C19.4166 29.1093 22.2405 25.895 23.8192 22.1838C25.3979 18.4726 25.6588 14.4353 24.5682 10.5938L18.7936 5.57666C21.1293 9.70069 22.0694 14.3161 21.5047 18.8861C20.94 23.4561 18.8937 27.7929 15.6036 31.3922Z" fill="#AFB1B8"/>
<path d="M35.1879 19.1265C34.2068 22.9731 31.8241 26.4422 28.3935 29.0188C27.3916 29.7754 26.3109 30.4495 25.1653 31.0323C27.9588 30.3189 30.5264 29.0577 32.6702 27.3459C34.8139 25.634 36.4766 23.5173 37.5299 21.1589L35.1879 19.1265Z" fill="#AFB1B8"/>
<path d="M34.269 18.5602L30.9346 15.6631C30.8708 18.9662 29.79 22.1942 27.8045 25.0115C25.8191 27.8289 23.0013 30.1328 19.6442 31.6839H19.6606C20.4087 31.6836 21.1562 31.6449 21.899 31.5678C25.0364 30.4552 27.808 28.6851 29.9664 26.4154C32.1249 24.1457 33.603 21.447 34.269 18.5602Z" fill="#AFB1B8"/>
<path d="M16.0862 3.46096L12.1083 0C8.55217 1.19395 5.49375 3.29288 3.33332 6.02207C1.17289 8.75127 0.0110968 11.9836 0 15.296H0C0.0133281 18.956 1.43121 22.5077 4.02923 25.3889C6.62725 28.27 10.257 30.316 14.344 31.2031C17.9924 27.341 20.1285 22.5688 20.4418 17.5798C20.7551 12.5908 19.2294 7.64499 16.0862 3.46096Z" fill="#AFB1B8"/>
<path d="M43.46 18.0275C43.4456 13.685 41.4538 9.52396 37.9196 6.45335C34.3855 3.38274 29.5963 1.65216 24.5983 1.63966C22.2887 1.63758 19.9988 2.00786 17.8448 2.73171L42.2004 23.8928C43.0343 22.0223 43.4614 20.0335 43.46 18.0275Z" fill="#AFB1B8"/>
</svg>
